<svg version="1.1" baseProfile="full" shape-rendering="crispEdges" width="410" height="410" xmlns="http://www.w3.org/2000/svg" xmlns:xlink="http://www.w3.org/1999/xlink"><rect x="0" y="0" width="410" height="410" fill="#FFFFFF" />
<rect x="40" y="40" width="70" height="10" fill="#FF0000" />
<rect x="150" y="40" width="20" height="10" fill="#FF0000" />
<rect x="180" y="40" width="30" height="10" fill="#FF0000" />
<rect x="220" y="40" width="30" height="10" fill="#FF0000" />
<rect x="260" y="40" width="20" height="10" fill="#FF0000" />
<rect x="300" y="40" width="70" height="10" fill="#FF0000" />
<rect x="40" y="50" width="10" height="50" fill="#FF0000" />
<rect x="100" y="50" width="10" height="50" fill="#FF0000" />
<rect x="140" y="50" width="20" height="10" fill="#FF0000" />
<rect x="170" y="50" width="30" height="10" fill="#FF0000" />
<rect x="210" y="50" width="20" height="10" fill="#FF0000" />
<rect x="240" y="50" width="20" height="10" fill="#FF0000" />
<rect x="270" y="50" width="20" height="10" fill="#FF0000" />
<rect x="300" y="50" width="10" height="50" fill="#FF0000" />
<rect x="360" y="50" width="10" height="50" fill="#FF0000" />
<rect x="60" y="60" width="30" height="30" fill="#FF0000" />
<rect x="130" y="60" width="10" height="10" fill="#FF0000" />
<rect x="150" y="60" width="10" height="10" fill="#FF0000" />
<rect x="210" y="60" width="10" height="10" fill="#FF0000" />
<rect x="230" y="60" width="20" height="20" fill="#FF0000" />
<rect x="320" y="60" width="30" height="30" fill="#FF0000" />
<rect x="150" y="70" width="70" height="10" fill="#FF0000" />
<rect x="270" y="70" width="20" height="20" fill="#FF0000" />
<rect x="120" y="80" width="20" height="10" fill="#FF0000" />
<rect x="150" y="80" width="10" height="10" fill="#FF0000" />
<rect x="180" y="80" width="10" height="30" fill="#FF0000" />
<rect x="200" y="80" width="10" height="10" fill="#FF0000" />
<rect x="230" y="80" width="10" height="10" fill="#FF0000" />
<rect x="130" y="90" width="10" height="10" fill="#FF0000" />
<rect x="160" y="90" width="10" height="20" fill="#FF0000" />
<rect x="210" y="90" width="20" height="10" fill="#FF0000" />
<rect x="240" y="90" width="40" height="10" fill="#FF0000" />
<rect x="40" y="100" width="70" height="10" fill="#FF0000" />
<rect x="120" y="100" width="10" height="20" fill="#FF0000" />
<rect x="140" y="100" width="10" height="10" fill="#FF0000" />
<rect x="200" y="100" width="10" height="10" fill="#FF0000" />
<rect x="220" y="100" width="10" height="10" fill="#FF0000" />
<rect x="240" y="100" width="10" height="10" fill="#FF0000" />
<rect x="260" y="100" width="10" height="10" fill="#FF0000" />
<rect x="280" y="100" width="10" height="20" fill="#FF0000" />
<rect x="300" y="100" width="70" height="10" fill="#FF0000" />
<rect x="140" y="110" width="30" height="10" fill="#FF0000" />
<rect x="190" y="110" width="10" height="10" fill="#FF0000" />
<rect x="210" y="110" width="10" height="10" fill="#FF0000" />
<rect x="230" y="110" width="10" height="10" fill="#FF0000" />
<rect x="60" y="120" width="20" height="10" fill="#FF0000" />
<rect x="100" y="120" width="80" height="10" fill="#FF0000" />
<rect x="190" y="120" width="120" height="10" fill="#FF0000" />
<rect x="320" y="120" width="10" height="10" fill="#FF0000" />
<rect x="40" y="130" width="10" height="20" fill="#FF0000" />
<rect x="70" y="130" width="30" height="10" fill="#FF0000" />
<rect x="120" y="130" width="20" height="10" fill="#FF0000" />
<rect x="150" y="130" width="10" height="10" fill="#FF0000" />
<rect x="180" y="130" width="10" height="20" fill="#FF0000" />
<rect x="200" y="130" width="10" height="20" fill="#FF0000" />
<rect x="230" y="130" width="80" height="10" fill="#FF0000" />
<rect x="330" y="130" width="20" height="10" fill="#FF0000" />
<rect x="360" y="130" width="10" height="20" fill="#FF0000" />
<rect x="80" y="140" width="30" height="10" fill="#FF0000" />
<rect x="130" y="140" width="20" height="10" fill="#FF0000" />
<rect x="220" y="140" width="10" height="10" fill="#FF0000" />
<rect x="270" y="140" width="50" height="10" fill="#FF0000" />
<rect x="60" y="150" width="20" height="10" fill="#FF0000" />
<rect x="90" y="150" width="10" height="10" fill="#FF0000" />
<rect x="120" y="150" width="20" height="10" fill="#FF0000" />
<rect x="150" y="150" width="10" height="10" fill="#FF0000" />
<rect x="170" y="150" width="40" height="10" fill="#FF0000" />
<rect x="220" y="150" width="30" height="10" fill="#FF0000" />
<rect x="330" y="150" width="10" height="20" fill="#FF0000" />
<rect x="60" y="160" width="10" height="10" fill="#FF0000" />
<rect x="80" y="160" width="40" height="10" fill="#FF0000" />
<rect x="140" y="160" width="10" height="10" fill="#FF0000" />
<rect x="190" y="160" width="10" height="10" fill="#FF0000" />
<rect x="210" y="160" width="20" height="10" fill="#FF0000" />
<rect x="250" y="160" width="10" height="10" fill="#FF0000" />
<rect x="280" y="160" width="20" height="10" fill="#FF0000" />
<rect x="50" y="170" width="10" height="10" fill="#FF0000" />
<rect x="70" y="170" width="10" height="20" fill="#FF0000" />
<rect x="90" y="170" width="10" height="10" fill="#FF0000" />
<rect x="110" y="170" width="20" height="10" fill="#FF0000" />
<rect x="170" y="170" width="10" height="20" fill="#FF0000" />
<rect x="190" y="170" width="30" height="10" fill="#FF0000" />
<rect x="260" y="170" width="10" height="10" fill="#FF0000" />
<rect x="280" y="170" width="10" height="10" fill="#FF0000" />
<rect x="340" y="170" width="30" height="10" fill="#FF0000" />
<rect x="40" y="180" width="10" height="10" fill="#FF0000" />
<rect x="100" y="180" width="20" height="10" fill="#FF0000" />
<rect x="130" y="180" width="20" height="10" fill="#FF0000" />
<rect x="190" y="180" width="10" height="10" fill="#FF0000" />
<rect x="210" y="180" width="60" height="10" fill="#FF0000" />
<rect x="280" y="180" width="20" height="10" fill="#FF0000" />
<rect x="310" y="180" width="40" height="10" fill="#FF0000" />
<rect x="40" y="190" width="20" height="10" fill="#FF0000" />
<rect x="140" y="190" width="10" height="10" fill="#FF0000" />
<rect x="200" y="190" width="10" height="10" fill="#FF0000" />
<rect x="220" y="190" width="80" height="10" fill="#FF0000" />
<rect x="310" y="190" width="10" height="10" fill="#FF0000" />
<rect x="340" y="190" width="30" height="10" fill="#FF0000" />
<rect x="50" y="200" width="20" height="10" fill="#FF0000" />
<rect x="100" y="200" width="20" height="10" fill="#FF0000" />
<rect x="150" y="200" width="20" height="10" fill="#FF0000" />
<rect x="180" y="200" width="10" height="10" fill="#FF0000" />
<rect x="210" y="200" width="30" height="10" fill="#FF0000" />
<rect x="250" y="200" width="10" height="10" fill="#FF0000" />
<rect x="270" y="200" width="10" height="10" fill="#FF0000" />
<rect x="300" y="200" width="10" height="10" fill="#FF0000" />
<rect x="320" y="200" width="20" height="20" fill="#FF0000" />
<rect x="50" y="210" width="10" height="10" fill="#FF0000" />
<rect x="70" y="210" width="10" height="10" fill="#FF0000" />
<rect x="90" y="210" width="10" height="10" fill="#FF0000" />
<rect x="130" y="210" width="10" height="10" fill="#FF0000" />
<rect x="170" y="210" width="20" height="10" fill="#FF0000" />
<rect x="200" y="210" width="10" height="10" fill="#FF0000" />
<rect x="220" y="210" width="10" height="10" fill="#FF0000" />
<rect x="240" y="210" width="10" height="10" fill="#FF0000" />
<rect x="260" y="210" width="50" height="10" fill="#FF0000" />
<rect x="360" y="210" width="10" height="10" fill="#FF0000" />
<rect x="40" y="220" width="10" height="10" fill="#FF0000" />
<rect x="60" y="220" width="10" height="10" fill="#FF0000" />
<rect x="100" y="220" width="20" height="10" fill="#FF0000" />
<rect x="130" y="220" width="20" height="10" fill="#FF0000" />
<rect x="160" y="220" width="10" height="10" fill="#FF0000" />
<rect x="190" y="220" width="10" height="10" fill="#FF0000" />
<rect x="210" y="220" width="10" height="10" fill="#FF0000" />
<rect x="230" y="220" width="30" height="10" fill="#FF0000" />
<rect x="280" y="220" width="40" height="10" fill="#FF0000" />
<rect x="340" y="220" width="10" height="10" fill="#FF0000" />
<rect x="70" y="230" width="10" height="10" fill="#FF0000" />
<rect x="110" y="230" width="20" height="10" fill="#FF0000" />
<rect x="150" y="230" width="50" height="10" fill="#FF0000" />
<rect x="210" y="230" width="20" height="10" fill="#FF0000" />
<rect x="270" y="230" width="10" height="10" fill="#FF0000" />
<rect x="310" y="230" width="10" height="10" fill="#FF0000" />
<rect x="350" y="230" width="10" height="10" fill="#FF0000" />
<rect x="50" y="240" width="10" height="10" fill="#FF0000" />
<rect x="70" y="240" width="20" height="10" fill="#FF0000" />
<rect x="100" y="240" width="50" height="10" fill="#FF0000" />
<rect x="160" y="240" width="20" height="10" fill="#FF0000" />
<rect x="190" y="240" width="20" height="10" fill="#FF0000" />
<rect x="250" y="240" width="10" height="10" fill="#FF0000" />
<rect x="280" y="240" width="10" height="20" fill="#FF0000" />
<rect x="300" y="240" width="20" height="10" fill="#FF0000" />
<rect x="340" y="240" width="20" height="10" fill="#FF0000" />
<rect x="40" y="250" width="10" height="10" fill="#FF0000" />
<rect x="60" y="250" width="20" height="20" fill="#FF0000" />
<rect x="90" y="250" width="10" height="10" fill="#FF0000" />
<rect x="110" y="250" width="30" height="10" fill="#FF0000" />
<rect x="150" y="250" width="60" height="10" fill="#FF0000" />
<rect x="230" y="250" width="40" height="10" fill="#FF0000" />
<rect x="340" y="250" width="10" height="10" fill="#FF0000" />
<rect x="360" y="250" width="10" height="10" fill="#FF0000" />
<rect x="100" y="260" width="10" height="10" fill="#FF0000" />
<rect x="120" y="260" width="50" height="10" fill="#FF0000" />
<rect x="190" y="260" width="20" height="10" fill="#FF0000" />
<rect x="220" y="260" width="20" height="10" fill="#FF0000" />
<rect x="250" y="260" width="10" height="10" fill="#FF0000" />
<rect x="270" y="260" width="20" height="10" fill="#FF0000" />
<rect x="300" y="260" width="20" height="10" fill="#FF0000" />
<rect x="330" y="260" width="10" height="10" fill="#FF0000" />
<rect x="350" y="260" width="20" height="10" fill="#FF0000" />
<rect x="50" y="270" width="10" height="10" fill="#FF0000" />
<rect x="70" y="270" width="20" height="10" fill="#FF0000" />
<rect x="160" y="270" width="40" height="20" fill="#FF0000" />
<rect x="210" y="270" width="20" height="10" fill="#FF0000" />
<rect x="240" y="270" width="10" height="10" fill="#FF0000" />
<rect x="300" y="270" width="10" height="10" fill="#FF0000" />
<rect x="320" y="270" width="20" height="10" fill="#FF0000" />
<rect x="350" y="270" width="10" height="20" fill="#FF0000" />
<rect x="40" y="280" width="10" height="10" fill="#FF0000" />
<rect x="70" y="280" width="40" height="10" fill="#FF0000" />
<rect x="120" y="280" width="10" height="20" fill="#FF0000" />
<rect x="210" y="280" width="30" height="10" fill="#FF0000" />
<rect x="280" y="280" width="60" height="10" fill="#FF0000" />
<rect x="150" y="290" width="60" height="10" fill="#FF0000" />
<rect x="220" y="290" width="20" height="10" fill="#FF0000" />
<rect x="250" y="290" width="10" height="20" fill="#FF0000" />
<rect x="280" y="290" width="10" height="10" fill="#FF0000" />
<rect x="320" y="290" width="20" height="10" fill="#FF0000" />
<rect x="40" y="300" width="70" height="10" fill="#FF0000" />
<rect x="120" y="300" width="50" height="10" fill="#FF0000" />
<rect x="180" y="300" width="20" height="10" fill="#FF0000" />
<rect x="230" y="300" width="10" height="10" fill="#FF0000" />
<rect x="270" y="300" width="20" height="10" fill="#FF0000" />
<rect x="300" y="300" width="10" height="10" fill="#FF0000" />
<rect x="320" y="300" width="30" height="20" fill="#FF0000" />
<rect x="40" y="310" width="10" height="50" fill="#FF0000" />
<rect x="100" y="310" width="10" height="50" fill="#FF0000" />
<rect x="140" y="310" width="10" height="10" fill="#FF0000" />
<rect x="160" y="310" width="10" height="10" fill="#FF0000" />
<rect x="190" y="310" width="30" height="10" fill="#FF0000" />
<rect x="240" y="310" width="10" height="20" fill="#FF0000" />
<rect x="280" y="310" width="10" height="10" fill="#FF0000" />
<rect x="60" y="320" width="30" height="30" fill="#FF0000" />
<rect x="130" y="320" width="10" height="10" fill="#FF0000" />
<rect x="170" y="320" width="10" height="10" fill="#FF0000" />
<rect x="200" y="320" width="30" height="10" fill="#FF0000" />
<rect x="260" y="320" width="70" height="10" fill="#FF0000" />
<rect x="340" y="320" width="10" height="10" fill="#FF0000" />
<rect x="360" y="320" width="10" height="10" fill="#FF0000" />
<rect x="120" y="330" width="20" height="10" fill="#FF0000" />
<rect x="150" y="330" width="10" height="10" fill="#FF0000" />
<rect x="180" y="330" width="30" height="10" fill="#FF0000" />
<rect x="240" y="330" width="30" height="10" fill="#FF0000" />
<rect x="290" y="330" width="10" height="10" fill="#FF0000" />
<rect x="330" y="330" width="20" height="10" fill="#FF0000" />
<rect x="120" y="340" width="10" height="10" fill="#FF0000" />
<rect x="140" y="340" width="10" height="10" fill="#FF0000" />
<rect x="180" y="340" width="10" height="10" fill="#FF0000" />
<rect x="210" y="340" width="10" height="10" fill="#FF0000" />
<rect x="230" y="340" width="10" height="10" fill="#FF0000" />
<rect x="260" y="340" width="10" height="10" fill="#FF0000" />
<rect x="280" y="340" width="10" height="10" fill="#FF0000" />
<rect x="300" y="340" width="10" height="10" fill="#FF0000" />
<rect x="130" y="350" width="20" height="10" fill="#FF0000" />
<rect x="170" y="350" width="40" height="10" fill="#FF0000" />
<rect x="230" y="350" width="60" height="10" fill="#FF0000" />
<rect x="340" y="350" width="10" height="10" fill="#FF0000" />
<rect x="360" y="350" width="10" height="10" fill="#FF0000" />
<rect x="40" y="360" width="70" height="10" fill="#FF0000" />
<rect x="130" y="360" width="10" height="10" fill="#FF0000" />
<rect x="150" y="360" width="10" height="10" fill="#FF0000" />
<rect x="170" y="360" width="10" height="10" fill="#FF0000" />
<rect x="220" y="360" width="10" height="10" fill="#FF0000" />
<rect x="240" y="360" width="10" height="10" fill="#FF0000" />
<rect x="260" y="360" width="20" height="10" fill="#FF0000" />
</svg>