<svg version="1.1" baseProfile="full" shape-rendering="crispEdges" viewBox="0 0 128 128" xmlns="http://www.w3.org/2000/svg" xmlns:xlink="http://www.w3.org/1999/xlink"><rect x="0" y="0" width="128" height="128" fill="#FFFFFF" />
<rect x="12.4878048780488" y="12.4878048780488" width="21.8536585365854" height="3.1219512195122" fill="#000000" />
<rect x="46.8292682926829" y="12.4878048780488" width="6.24390243902439" height="3.1219512195122" fill="#000000" />
<rect x="56.1951219512195" y="12.4878048780488" width="9.36585365853659" height="3.1219512195122" fill="#000000" />
<rect x="68.6829268292683" y="12.4878048780488" width="9.36585365853659" height="3.1219512195122" fill="#000000" />
<rect x="81.1707317073171" y="12.4878048780488" width="6.24390243902439" height="3.1219512195122" fill="#000000" />
<rect x="93.6585365853659" y="12.4878048780488" width="21.8536585365854" height="3.1219512195122" fill="#000000" />
<rect x="12.4878048780488" y="15.609756097561" width="3.1219512195122" height="15.609756097561" fill="#000000" />
<rect x="31.219512195122" y="15.609756097561" width="3.1219512195122" height="15.609756097561" fill="#000000" />
<rect x="43.7073170731707" y="15.609756097561" width="6.24390243902439" height="3.1219512195122" fill="#000000" />
<rect x="53.0731707317073" y="15.609756097561" width="9.36585365853659" height="3.1219512195122" fill="#000000" />
<rect x="65.5609756097561" y="15.609756097561" width="6.24390243902439" height="3.1219512195122" fill="#000000" />
<rect x="74.9268292682927" y="15.609756097561" width="6.24390243902439" height="3.1219512195122" fill="#000000" />
<rect x="84.2926829268293" y="15.609756097561" width="6.24390243902439" height="3.1219512195122" fill="#000000" />
<rect x="93.6585365853659" y="15.609756097561" width="3.1219512195122" height="15.609756097561" fill="#000000" />
<rect x="112.390243902439" y="15.609756097561" width="3.1219512195122" height="15.609756097561" fill="#000000" />
<rect x="18.7317073170732" y="18.7317073170732" width="9.36585365853659" height="9.36585365853659" fill="#000000" />
<rect x="40.5853658536585" y="18.7317073170732" width="3.1219512195122" height="3.1219512195122" fill="#000000" />
<rect x="46.8292682926829" y="18.7317073170732" width="3.1219512195122" height="3.1219512195122" fill="#000000" />
<rect x="65.5609756097561" y="18.7317073170732" width="3.1219512195122" height="3.1219512195122" fill="#000000" />
<rect x="71.8048780487805" y="18.7317073170732" width="6.24390243902439" height="6.24390243902439" fill="#000000" />
<rect x="99.9024390243902" y="18.7317073170732" width="9.36585365853659" height="9.36585365853659" fill="#000000" />
<rect x="46.8292682926829" y="21.8536585365854" width="21.8536585365854" height="3.1219512195122" fill="#000000" />
<rect x="84.2926829268293" y="21.8536585365854" width="6.24390243902439" height="6.24390243902439" fill="#000000" />
<rect x="37.4634146341463" y="24.9756097560976" width="6.24390243902439" height="3.1219512195122" fill="#000000" />
<rect x="46.8292682926829" y="24.9756097560976" width="3.1219512195122" height="3.1219512195122" fill="#000000" />
<rect x="56.1951219512195" y="24.9756097560976" width="3.1219512195122" height="9.36585365853659" fill="#000000" />
<rect x="62.4390243902439" y="24.9756097560976" width="3.1219512195122" height="3.1219512195122" fill="#000000" />
<rect x="71.8048780487805" y="24.9756097560976" width="3.1219512195122" height="3.1219512195122" fill="#000000" />
<rect x="40.5853658536585" y="28.0975609756098" width="3.1219512195122" height="3.1219512195122" fill="#000000" />
<rect x="49.9512195121951" y="28.0975609756098" width="3.1219512195122" height="6.24390243902439" fill="#000000" />
<rect x="65.5609756097561" y="28.0975609756098" width="6.24390243902439" height="3.1219512195122" fill="#000000" />
<rect x="74.9268292682927" y="28.0975609756098" width="12.4878048780488" height="3.1219512195122" fill="#000000" />
<rect x="12.4878048780488" y="31.219512195122" width="21.8536585365854" height="3.1219512195122" fill="#000000" />
<rect x="37.4634146341463" y="31.219512195122" width="3.1219512195122" height="6.24390243902439" fill="#000000" />
<rect x="43.7073170731707" y="31.219512195122" width="3.1219512195122" height="3.1219512195122" fill="#000000" />
<rect x="62.4390243902439" y="31.219512195122" width="3.1219512195122" height="3.1219512195122" fill="#000000" />
<rect x="68.6829268292683" y="31.219512195122" width="3.1219512195122" height="3.1219512195122" fill="#000000" />
<rect x="74.9268292682927" y="31.219512195122" width="3.1219512195122" height="3.1219512195122" fill="#000000" />
<rect x="81.1707317073171" y="31.219512195122" width="3.1219512195122" height="3.1219512195122" fill="#000000" />
<rect x="87.4146341463415" y="31.219512195122" width="3.1219512195122" height="6.24390243902439" fill="#000000" />
<rect x="93.6585365853659" y="31.219512195122" width="21.8536585365854" height="3.1219512195122" fill="#000000" />
<rect x="43.7073170731707" y="34.3414634146341" width="9.36585365853659" height="3.1219512195122" fill="#000000" />
<rect x="59.3170731707317" y="34.3414634146341" width="3.1219512195122" height="3.1219512195122" fill="#000000" />
<rect x="65.5609756097561" y="34.3414634146341" width="3.1219512195122" height="3.1219512195122" fill="#000000" />
<rect x="71.8048780487805" y="34.3414634146341" width="3.1219512195122" height="3.1219512195122" fill="#000000" />
<rect x="18.7317073170732" y="37.4634146341463" width="6.24390243902439" height="3.1219512195122" fill="#000000" />
<rect x="31.219512195122" y="37.4634146341463" width="24.9756097560976" height="3.1219512195122" fill="#000000" />
<rect x="59.3170731707317" y="37.4634146341463" width="37.4634146341463" height="3.1219512195122" fill="#000000" />
<rect x="99.9024390243902" y="37.4634146341463" width="3.1219512195122" height="3.1219512195122" fill="#000000" />
<rect x="12.4878048780488" y="40.5853658536585" width="3.1219512195122" height="6.24390243902439" fill="#000000" />
<rect x="21.8536585365854" y="40.5853658536585" width="9.36585365853659" height="3.1219512195122" fill="#000000" />
<rect x="37.4634146341463" y="40.5853658536585" width="6.24390243902439" height="3.1219512195122" fill="#000000" />
<rect x="46.8292682926829" y="40.5853658536585" width="3.1219512195122" height="3.1219512195122" fill="#000000" />
<rect x="56.1951219512195" y="40.5853658536585" width="3.1219512195122" height="6.24390243902439" fill="#000000" />
<rect x="62.4390243902439" y="40.5853658536585" width="3.1219512195122" height="6.24390243902439" fill="#000000" />
<rect x="71.8048780487805" y="40.5853658536585" width="24.9756097560976" height="3.1219512195122" fill="#000000" />
<rect x="103.024390243902" y="40.5853658536585" width="6.24390243902439" height="3.1219512195122" fill="#000000" />
<rect x="112.390243902439" y="40.5853658536585" width="3.1219512195122" height="6.24390243902439" fill="#000000" />
<rect x="24.9756097560976" y="43.7073170731707" width="9.36585365853659" height="3.1219512195122" fill="#000000" />
<rect x="40.5853658536585" y="43.7073170731707" width="6.24390243902439" height="3.1219512195122" fill="#000000" />
<rect x="68.6829268292683" y="43.7073170731707" width="3.1219512195122" height="3.1219512195122" fill="#000000" />
<rect x="84.2926829268293" y="43.7073170731707" width="15.609756097561" height="3.1219512195122" fill="#000000" />
<rect x="18.7317073170732" y="46.8292682926829" width="6.24390243902439" height="3.1219512195122" fill="#000000" />
<rect x="28.0975609756098" y="46.8292682926829" width="3.1219512195122" height="3.1219512195122" fill="#000000" />
<rect x="37.4634146341463" y="46.8292682926829" width="6.24390243902439" height="3.1219512195122" fill="#000000" />
<rect x="46.8292682926829" y="46.8292682926829" width="3.1219512195122" height="3.1219512195122" fill="#000000" />
<rect x="53.0731707317073" y="46.8292682926829" width="12.4878048780488" height="3.1219512195122" fill="#000000" />
<rect x="68.6829268292683" y="46.8292682926829" width="9.36585365853659" height="3.1219512195122" fill="#000000" />
<rect x="103.024390243902" y="46.8292682926829" width="3.1219512195122" height="6.24390243902439" fill="#000000" />
<rect x="18.7317073170732" y="49.9512195121951" width="3.1219512195122" height="3.1219512195122" fill="#000000" />
<rect x="24.9756097560976" y="49.9512195121951" width="12.4878048780488" height="3.1219512195122" fill="#000000" />
<rect x="43.7073170731707" y="49.9512195121951" width="3.1219512195122" height="3.1219512195122" fill="#000000" />
<rect x="59.3170731707317" y="49.9512195121951" width="3.1219512195122" height="3.1219512195122" fill="#000000" />
<rect x="65.5609756097561" y="49.9512195121951" width="6.24390243902439" height="3.1219512195122" fill="#000000" />
<rect x="78.0487804878049" y="49.9512195121951" width="3.1219512195122" height="3.1219512195122" fill="#000000" />
<rect x="87.4146341463415" y="49.9512195121951" width="6.24390243902439" height="3.1219512195122" fill="#000000" />
<rect x="15.609756097561" y="53.0731707317073" width="3.1219512195122" height="3.1219512195122" fill="#000000" />
<rect x="21.8536585365854" y="53.0731707317073" width="3.1219512195122" height="6.24390243902439" fill="#000000" />
<rect x="28.0975609756098" y="53.0731707317073" width="3.1219512195122" height="3.1219512195122" fill="#000000" />
<rect x="34.3414634146341" y="53.0731707317073" width="6.24390243902439" height="3.1219512195122" fill="#000000" />
<rect x="53.0731707317073" y="53.0731707317073" width="3.1219512195122" height="6.24390243902439" fill="#000000" />
<rect x="59.3170731707317" y="53.0731707317073" width="9.36585365853659" height="3.1219512195122" fill="#000000" />
<rect x="81.1707317073171" y="53.0731707317073" width="3.1219512195122" height="3.1219512195122" fill="#000000" />
<rect x="87.4146341463415" y="53.0731707317073" width="3.1219512195122" height="3.1219512195122" fill="#000000" />
<rect x="106.146341463415" y="53.0731707317073" width="9.36585365853659" height="3.1219512195122" fill="#000000" />
<rect x="12.4878048780488" y="56.1951219512195" width="3.1219512195122" height="3.1219512195122" fill="#000000" />
<rect x="31.219512195122" y="56.1951219512195" width="6.24390243902439" height="3.1219512195122" fill="#000000" />
<rect x="40.5853658536585" y="56.1951219512195" width="6.24390243902439" height="3.1219512195122" fill="#000000" />
<rect x="59.3170731707317" y="56.1951219512195" width="3.1219512195122" height="3.1219512195122" fill="#000000" />
<rect x="65.5609756097561" y="56.1951219512195" width="18.7317073170732" height="3.1219512195122" fill="#000000" />
<rect x="87.4146341463415" y="56.1951219512195" width="6.24390243902439" height="3.1219512195122" fill="#000000" />
<rect x="96.780487804878" y="56.1951219512195" width="12.4878048780488" height="3.1219512195122" fill="#000000" />
<rect x="12.4878048780488" y="59.3170731707317" width="6.24390243902439" height="3.1219512195122" fill="#000000" />
<rect x="43.7073170731707" y="59.3170731707317" width="3.1219512195122" height="3.1219512195122" fill="#000000" />
<rect x="62.4390243902439" y="59.3170731707317" width="3.1219512195122" height="3.1219512195122" fill="#000000" />
<rect x="68.6829268292683" y="59.3170731707317" width="24.9756097560976" height="3.1219512195122" fill="#000000" />
<rect x="96.780487804878" y="59.3170731707317" width="3.1219512195122" height="3.1219512195122" fill="#000000" />
<rect x="106.146341463415" y="59.3170731707317" width="9.36585365853659" height="3.1219512195122" fill="#000000" />
<rect x="15.609756097561" y="62.4390243902439" width="6.24390243902439" height="3.1219512195122" fill="#000000" />
<rect x="31.219512195122" y="62.4390243902439" width="6.24390243902439" height="3.1219512195122" fill="#000000" />
<rect x="46.8292682926829" y="62.4390243902439" width="6.24390243902439" height="3.1219512195122" fill="#000000" />
<rect x="56.1951219512195" y="62.4390243902439" width="3.1219512195122" height="3.1219512195122" fill="#000000" />
<rect x="65.5609756097561" y="62.4390243902439" width="9.36585365853659" height="3.1219512195122" fill="#000000" />
<rect x="78.0487804878049" y="62.4390243902439" width="3.1219512195122" height="3.1219512195122" fill="#000000" />
<rect x="84.2926829268293" y="62.4390243902439" width="3.1219512195122" height="3.1219512195122" fill="#000000" />
<rect x="93.6585365853659" y="62.4390243902439" width="3.1219512195122" height="3.1219512195122" fill="#000000" />
<rect x="99.9024390243902" y="62.4390243902439" width="6.24390243902439" height="6.24390243902439" fill="#000000" />
<rect x="15.609756097561" y="65.5609756097561" width="3.1219512195122" height="3.1219512195122" fill="#000000" />
<rect x="21.8536585365854" y="65.5609756097561" width="3.1219512195122" height="3.1219512195122" fill="#000000" />
<rect x="28.0975609756098" y="65.5609756097561" width="3.1219512195122" height="3.1219512195122" fill="#000000" />
<rect x="40.5853658536585" y="65.5609756097561" width="3.1219512195122" height="3.1219512195122" fill="#000000" />
<rect x="53.0731707317073" y="65.5609756097561" width="6.24390243902439" height="3.1219512195122" fill="#000000" />
<rect x="62.4390243902439" y="65.5609756097561" width="3.1219512195122" height="3.1219512195122" fill="#000000" />
<rect x="68.6829268292683" y="65.5609756097561" width="3.1219512195122" height="3.1219512195122" fill="#000000" />
<rect x="74.9268292682927" y="65.5609756097561" width="3.1219512195122" height="3.1219512195122" fill="#000000" />
<rect x="81.1707317073171" y="65.5609756097561" width="15.609756097561" height="3.1219512195122" fill="#000000" />
<rect x="112.390243902439" y="65.5609756097561" width="3.1219512195122" height="3.1219512195122" fill="#000000" />
<rect x="12.4878048780488" y="68.6829268292683" width="3.1219512195122" height="3.1219512195122" fill="#000000" />
<rect x="18.7317073170732" y="68.6829268292683" width="3.1219512195122" height="3.1219512195122" fill="#000000" />
<rect x="31.219512195122" y="68.6829268292683" width="6.24390243902439" height="3.1219512195122" fill="#000000" />
<rect x="40.5853658536585" y="68.6829268292683" width="6.24390243902439" height="3.1219512195122" fill="#000000" />
<rect x="49.9512195121951" y="68.6829268292683" width="3.1219512195122" height="3.1219512195122" fill="#000000" />
<rect x="59.3170731707317" y="68.6829268292683" width="3.1219512195122" height="3.1219512195122" fill="#000000" />
<rect x="65.5609756097561" y="68.6829268292683" width="3.1219512195122" height="3.1219512195122" fill="#000000" />
<rect x="71.8048780487805" y="68.6829268292683" width="9.36585365853659" height="3.1219512195122" fill="#000000" />
<rect x="87.4146341463415" y="68.6829268292683" width="12.4878048780488" height="3.1219512195122" fill="#000000" />
<rect x="106.146341463415" y="68.6829268292683" width="3.1219512195122" height="3.1219512195122" fill="#000000" />
<rect x="21.8536585365854" y="71.8048780487805" width="3.1219512195122" height="3.1219512195122" fill="#000000" />
<rect x="34.3414634146341" y="71.8048780487805" width="6.24390243902439" height="3.1219512195122" fill="#000000" />
<rect x="46.8292682926829" y="71.8048780487805" width="15.609756097561" height="3.1219512195122" fill="#000000" />
<rect x="65.5609756097561" y="71.8048780487805" width="6.24390243902439" height="3.1219512195122" fill="#000000" />
<rect x="84.2926829268293" y="71.8048780487805" width="3.1219512195122" height="3.1219512195122" fill="#000000" />
<rect x="96.780487804878" y="71.8048780487805" width="3.1219512195122" height="3.1219512195122" fill="#000000" />
<rect x="109.268292682927" y="71.8048780487805" width="3.1219512195122" height="3.1219512195122" fill="#000000" />
<rect x="15.609756097561" y="74.9268292682927" width="3.1219512195122" height="3.1219512195122" fill="#000000" />
<rect x="21.8536585365854" y="74.9268292682927" width="6.24390243902439" height="3.1219512195122" fill="#000000" />
<rect x="31.219512195122" y="74.9268292682927" width="15.609756097561" height="3.1219512195122" fill="#000000" />
<rect x="49.9512195121951" y="74.9268292682927" width="6.24390243902439" height="3.1219512195122" fill="#000000" />
<rect x="59.3170731707317" y="74.9268292682927" width="6.24390243902439" height="3.1219512195122" fill="#000000" />
<rect x="78.0487804878049" y="74.9268292682927" width="3.1219512195122" height="3.1219512195122" fill="#000000" />
<rect x="87.4146341463415" y="74.9268292682927" width="3.1219512195122" height="6.24390243902439" fill="#000000" />
<rect x="93.6585365853659" y="74.9268292682927" width="6.24390243902439" height="3.1219512195122" fill="#000000" />
<rect x="106.146341463415" y="74.9268292682927" width="6.24390243902439" height="3.1219512195122" fill="#000000" />
<rect x="12.4878048780488" y="78.0487804878049" width="3.1219512195122" height="3.1219512195122" fill="#000000" />
<rect x="18.7317073170732" y="78.0487804878049" width="6.24390243902439" height="6.24390243902439" fill="#000000" />
<rect x="28.0975609756098" y="78.0487804878049" width="3.1219512195122" height="3.1219512195122" fill="#000000" />
<rect x="34.3414634146341" y="78.0487804878049" width="9.36585365853659" height="3.1219512195122" fill="#000000" />
<rect x="46.8292682926829" y="78.0487804878049" width="18.7317073170732" height="3.1219512195122" fill="#000000" />
<rect x="71.8048780487805" y="78.0487804878049" width="12.4878048780488" height="3.1219512195122" fill="#000000" />
<rect x="106.146341463415" y="78.0487804878049" width="3.1219512195122" height="3.1219512195122" fill="#000000" />
<rect x="112.390243902439" y="78.0487804878049" width="3.1219512195122" height="3.1219512195122" fill="#000000" />
<rect x="31.219512195122" y="81.1707317073171" width="3.1219512195122" height="3.1219512195122" fill="#000000" />
<rect x="37.4634146341463" y="81.1707317073171" width="15.609756097561" height="3.1219512195122" fill="#000000" />
<rect x="59.3170731707317" y="81.1707317073171" width="6.24390243902439" height="3.1219512195122" fill="#000000" />
<rect x="68.6829268292683" y="81.1707317073171" width="6.24390243902439" height="3.1219512195122" fill="#000000" />
<rect x="78.0487804878049" y="81.1707317073171" width="3.1219512195122" height="3.1219512195122" fill="#000000" />
<rect x="84.2926829268293" y="81.1707317073171" width="6.24390243902439" height="3.1219512195122" fill="#000000" />
<rect x="93.6585365853659" y="81.1707317073171" width="6.24390243902439" height="3.1219512195122" fill="#000000" />
<rect x="103.024390243902" y="81.1707317073171" width="3.1219512195122" height="3.1219512195122" fill="#000000" />
<rect x="109.268292682927" y="81.1707317073171" width="6.24390243902439" height="3.1219512195122" fill="#000000" />
<rect x="15.609756097561" y="84.2926829268293" width="3.1219512195122" height="3.1219512195122" fill="#000000" />
<rect x="21.8536585365854" y="84.2926829268293" width="6.24390243902439" height="3.1219512195122" fill="#000000" />
<rect x="49.9512195121951" y="84.2926829268293" width="12.4878048780488" height="6.24390243902439" fill="#000000" />
<rect x="65.5609756097561" y="84.2926829268293" width="6.24390243902439" height="3.1219512195122" fill="#000000" />
<rect x="74.9268292682927" y="84.2926829268293" width="3.1219512195122" height="3.1219512195122" fill="#000000" />
<rect x="93.6585365853659" y="84.2926829268293" width="3.1219512195122" height="3.1219512195122" fill="#000000" />
<rect x="99.9024390243902" y="84.2926829268293" width="6.24390243902439" height="3.1219512195122" fill="#000000" />
<rect x="109.268292682927" y="84.2926829268293" width="3.1219512195122" height="6.24390243902439" fill="#000000" />
<rect x="12.4878048780488" y="87.4146341463415" width="3.1219512195122" height="3.1219512195122" fill="#000000" />
<rect x="21.8536585365854" y="87.4146341463415" width="12.4878048780488" height="3.1219512195122" fill="#000000" />
<rect x="37.4634146341463" y="87.4146341463415" width="3.1219512195122" height="6.24390243902439" fill="#000000" />
<rect x="65.5609756097561" y="87.4146341463415" width="9.36585365853659" height="3.1219512195122" fill="#000000" />
<rect x="87.4146341463415" y="87.4146341463415" width="18.7317073170732" height="3.1219512195122" fill="#000000" />
<rect x="46.8292682926829" y="90.5365853658537" width="18.7317073170732" height="3.1219512195122" fill="#000000" />
<rect x="68.6829268292683" y="90.5365853658537" width="6.24390243902439" height="3.1219512195122" fill="#000000" />
<rect x="78.0487804878049" y="90.5365853658537" width="3.1219512195122" height="6.24390243902439" fill="#000000" />
<rect x="87.4146341463415" y="90.5365853658537" width="3.1219512195122" height="3.1219512195122" fill="#000000" />
<rect x="99.9024390243902" y="90.5365853658537" width="6.24390243902439" height="3.1219512195122" fill="#000000" />
<rect x="12.4878048780488" y="93.6585365853659" width="21.8536585365854" height="3.1219512195122" fill="#000000" />
<rect x="37.4634146341463" y="93.6585365853659" width="15.609756097561" height="3.1219512195122" fill="#000000" />
<rect x="56.1951219512195" y="93.6585365853659" width="6.24390243902439" height="3.1219512195122" fill="#000000" />
<rect x="71.8048780487805" y="93.6585365853659" width="3.1219512195122" height="3.1219512195122" fill="#000000" />
<rect x="84.2926829268293" y="93.6585365853659" width="6.24390243902439" height="3.1219512195122" fill="#000000" />
<rect x="93.6585365853659" y="93.6585365853659" width="3.1219512195122" height="3.1219512195122" fill="#000000" />
<rect x="99.9024390243902" y="93.6585365853659" width="9.36585365853659" height="6.24390243902439" fill="#000000" />
<rect x="12.4878048780488" y="96.780487804878" width="3.1219512195122" height="15.609756097561" fill="#000000" />
<rect x="31.219512195122" y="96.780487804878" width="3.1219512195122" height="15.609756097561" fill="#000000" />
<rect x="43.7073170731707" y="96.780487804878" width="3.1219512195122" height="3.1219512195122" fill="#000000" />
<rect x="49.9512195121951" y="96.780487804878" width="3.1219512195122" height="3.1219512195122" fill="#000000" />
<rect x="59.3170731707317" y="96.780487804878" width="9.36585365853659" height="3.1219512195122" fill="#000000" />
<rect x="74.9268292682927" y="96.780487804878" width="3.1219512195122" height="6.24390243902439" fill="#000000" />
<rect x="87.4146341463415" y="96.780487804878" width="3.1219512195122" height="3.1219512195122" fill="#000000" />
<rect x="18.7317073170732" y="99.9024390243902" width="9.36585365853659" height="9.36585365853659" fill="#000000" />
<rect x="40.5853658536585" y="99.9024390243902" width="3.1219512195122" height="3.1219512195122" fill="#000000" />
<rect x="53.0731707317073" y="99.9024390243902" width="3.1219512195122" height="3.1219512195122" fill="#000000" />
<rect x="62.4390243902439" y="99.9024390243902" width="9.36585365853659" height="3.1219512195122" fill="#000000" />
<rect x="81.1707317073171" y="99.9024390243902" width="21.8536585365854" height="3.1219512195122" fill="#000000" />
<rect x="106.146341463415" y="99.9024390243902" width="3.1219512195122" height="3.1219512195122" fill="#000000" />
<rect x="112.390243902439" y="99.9024390243902" width="3.1219512195122" height="3.1219512195122" fill="#000000" />
<rect x="37.4634146341463" y="103.024390243902" width="6.24390243902439" height="3.1219512195122" fill="#000000" />
<rect x="46.8292682926829" y="103.024390243902" width="3.1219512195122" height="3.1219512195122" fill="#000000" />
<rect x="56.1951219512195" y="103.024390243902" width="9.36585365853659" height="3.1219512195122" fill="#000000" />
<rect x="74.9268292682927" y="103.024390243902" width="9.36585365853659" height="3.1219512195122" fill="#000000" />
<rect x="90.5365853658537" y="103.024390243902" width="3.1219512195122" height="3.1219512195122" fill="#000000" />
<rect x="103.024390243902" y="103.024390243902" width="6.24390243902439" height="3.1219512195122" fill="#000000" />
<rect x="37.4634146341463" y="106.146341463415" width="3.1219512195122" height="3.1219512195122" fill="#000000" />
<rect x="43.7073170731707" y="106.146341463415" width="3.1219512195122" height="3.1219512195122" fill="#000000" />
<rect x="56.1951219512195" y="106.146341463415" width="3.1219512195122" height="3.1219512195122" fill="#000000" />
<rect x="65.5609756097561" y="106.146341463415" width="3.1219512195122" height="3.1219512195122" fill="#000000" />
<rect x="71.8048780487805" y="106.146341463415" width="3.1219512195122" height="3.1219512195122" fill="#000000" />
<rect x="81.1707317073171" y="106.146341463415" width="3.1219512195122" height="3.1219512195122" fill="#000000" />
<rect x="87.4146341463415" y="106.146341463415" width="3.1219512195122" height="3.1219512195122" fill="#000000" />
<rect x="93.6585365853659" y="106.146341463415" width="3.1219512195122" height="3.1219512195122" fill="#000000" />
<rect x="40.5853658536585" y="109.268292682927" width="6.24390243902439" height="3.1219512195122" fill="#000000" />
<rect x="53.0731707317073" y="109.268292682927" width="12.4878048780488" height="3.1219512195122" fill="#000000" />
<rect x="71.8048780487805" y="109.268292682927" width="18.7317073170732" height="3.1219512195122" fill="#000000" />
<rect x="106.146341463415" y="109.268292682927" width="3.1219512195122" height="3.1219512195122" fill="#000000" />
<rect x="112.390243902439" y="109.268292682927" width="3.1219512195122" height="3.1219512195122" fill="#000000" />
<rect x="12.4878048780488" y="112.390243902439" width="21.8536585365854" height="3.1219512195122" fill="#000000" />
<rect x="40.5853658536585" y="112.390243902439" width="3.1219512195122" height="3.1219512195122" fill="#000000" />
<rect x="46.8292682926829" y="112.390243902439" width="3.1219512195122" height="3.1219512195122" fill="#000000" />
<rect x="53.0731707317073" y="112.390243902439" width="3.1219512195122" height="3.1219512195122" fill="#000000" />
<rect x="68.6829268292683" y="112.390243902439" width="3.1219512195122" height="3.1219512195122" fill="#000000" />
<rect x="74.9268292682927" y="112.390243902439" width="3.1219512195122" height="3.1219512195122" fill="#000000" />
<rect x="81.1707317073171" y="112.390243902439" width="6.24390243902439" height="3.1219512195122" fill="#000000" />
</svg>