<svg xmlns="http://www.w3.org/2000/svg" viewBox="0 0 33 33" shape-rendering="crispEdges" width="330" height="330">
<path fill="#FF000080" d="M4 4h7v1h-7zM12 4h1v1h-1zM14 4h1v1h-1zM16 4h1v1h-1zM20 4h1v1h-1zM22 4h7v1h-7zM4 5h1v1h-1zM10 5h1v1h-1zM13 5h4v1h-4zM22 5h1v1h-1zM28 5h1v1h-1zM4 6h1v1h-1zM6 6h3v1h-3zM10 6h1v1h-1zM12 6h3v1h-3zM17 6h2v1h-2zM22 6h1v1h-1zM24 6h3v1h-3zM28 6h1v1h-1zM4 7h1v1h-1zM6 7h3v1h-3zM10 7h1v1h-1zM12 7h3v1h-3zM16 7h5v1h-5zM22 7h1v1h-1zM24 7h3v1h-3zM28 7h1v1h-1zM4 8h1v1h-1zM6 8h3v1h-3zM10 8h1v1h-1zM12 8h1v1h-1zM15 8h2v1h-2zM19 8h2v1h-2zM22 8h1v1h-1zM24 8h3v1h-3zM28 8h1v1h-1zM4 9h1v1h-1zM10 9h1v1h-1zM14 9h2v1h-2zM20 9h1v1h-1zM22 9h1v1h-1zM28 9h1v1h-1zM4 10h7v1h-7zM12 10h1v1h-1zM14 10h1v1h-1zM16 10h1v1h-1zM18 10h1v1h-1zM20 10h1v1h-1zM22 10h7v1h-7zM14 11h1v1h-1zM16 11h1v1h-1zM4 12h4v1h-4zM10 12h1v1h-1zM12 12h1v1h-1zM14 12h2v1h-2zM18 12h1v1h-1zM20 12h2v1h-2zM24 12h3v1h-3zM28 12h1v1h-1zM4 13h2v1h-2zM7 13h3v1h-3zM11 13h2v1h-2zM14 13h1v1h-1zM16 13h1v1h-1zM18 13h1v1h-1zM25 13h2v1h-2zM5 14h6v1h-6zM13 14h4v1h-4zM20 14h2v1h-2zM23 14h3v1h-3zM7 15h1v1h-1zM9 15h1v1h-1zM12 15h6v1h-6zM19 15h2v1h-2zM23 15h1v1h-1zM25 15h2v1h-2zM4 16h1v1h-1zM6 16h2v1h-2zM9 16h3v1h-3zM13 16h3v1h-3zM17 16h1v1h-1zM21 16h2v1h-2zM24 16h1v1h-1zM26 16h1v1h-1zM5 17h3v1h-3zM9 17h1v1h-1zM18 17h3v1h-3zM22 17h3v1h-3zM27 17h2v1h-2zM5 18h1v1h-1zM9 18h5v1h-5zM16 18h2v1h-2zM23 18h1v1h-1zM25 18h1v1h-1zM27 18h1v1h-1zM4 19h1v1h-1zM6 19h2v1h-2zM9 19h1v1h-1zM11 19h6v1h-6zM18 19h1v1h-1zM21 19h2v1h-2zM25 19h1v1h-1zM28 19h1v1h-1zM6 20h1v1h-1zM8 20h8v1h-8zM17 20h2v1h-2zM20 20h5v1h-5zM26 20h1v1h-1zM12 21h2v1h-2zM15 21h1v1h-1zM17 21h1v1h-1zM20 21h1v1h-1zM24 21h1v1h-1zM26 21h2v1h-2zM4 22h7v1h-7zM20 22h1v1h-1zM22 22h1v1h-1zM24 22h2v1h-2zM27 22h2v1h-2zM4 23h1v1h-1zM10 23h1v1h-1zM13 23h2v1h-2zM18 23h3v1h-3zM24 23h2v1h-2zM28 23h1v1h-1zM4 24h1v1h-1zM6 24h3v1h-3zM10 24h1v1h-1zM14 24h1v1h-1zM16 24h1v1h-1zM20 24h5v1h-5zM28 24h1v1h-1zM4 25h1v1h-1zM6 25h3v1h-3zM10 25h1v1h-1zM12 25h1v1h-1zM14 25h3v1h-3zM18 25h1v1h-1zM21 25h2v1h-2zM24 25h5v1h-5zM4 26h1v1h-1zM6 26h3v1h-3zM10 26h1v1h-1zM12 26h1v1h-1zM15 26h1v1h-1zM18 26h1v1h-1zM20 26h1v1h-1zM22 26h1v1h-1zM24 26h2v1h-2zM27 26h1v1h-1zM4 27h1v1h-1zM10 27h1v1h-1zM12 27h4v1h-4zM17 27h2v1h-2zM21 27h1v1h-1zM24 27h3v1h-3zM4 28h7v1h-7zM12 28h1v1h-1zM17 28h1v1h-1zM21 28h2v1h-2zM26 28h3v1h-3z"/>
</svg>