<svg xmlns="http://www.w3.org/2000/svg" viewBox="0 0 41 41" shape-rendering="crispEdges" width="410" height="410">
<path fill="#000" d="M0 0h41v1h-41zM0 1h41v1h-41zM0 2h41v1h-41zM0 3h41v1h-41zM0 4h4v1h-4zM11 4h4v1h-4zM17 4h1v1h-1zM21 4h1v1h-1zM25 4h1v1h-1zM28 4h2v1h-2zM37 4h4v1h-4zM0 5h4v1h-4zM5 5h5v1h-5zM11 5h3v1h-3zM16 5h1v1h-1zM20 5h1v1h-1zM23 5h1v1h-1zM26 5h1v1h-1zM29 5h1v1h-1zM31 5h5v1h-5zM37 5h4v1h-4zM0 6h4v1h-4zM5 6h1v1h-1zM9 6h1v1h-1zM11 6h2v1h-2zM14 6h1v1h-1zM16 6h5v1h-5zM22 6h1v1h-1zM25 6h5v1h-5zM31 6h1v1h-1zM35 6h1v1h-1zM37 6h4v1h-4zM0 7h4v1h-4zM5 7h1v1h-1zM9 7h1v1h-1zM11 7h4v1h-4zM22 7h1v1h-1zM25 7h2v1h-2zM29 7h1v1h-1zM31 7h1v1h-1zM35 7h1v1h-1zM37 7h4v1h-4zM0 8h4v1h-4zM5 8h1v1h-1zM9 8h1v1h-1zM11 8h1v1h-1zM14 8h1v1h-1zM16 8h2v1h-2zM19 8h1v1h-1zM21 8h2v1h-2zM24 8h3v1h-3zM29 8h1v1h-1zM31 8h1v1h-1zM35 8h1v1h-1zM37 8h4v1h-4zM0 9h4v1h-4zM5 9h5v1h-5zM11 9h2v1h-2zM14 9h2v1h-2zM17 9h1v1h-1zM19 9h2v1h-2zM23 9h1v1h-1zM28 9h2v1h-2zM31 9h5v1h-5zM37 9h4v1h-4zM0 10h4v1h-4zM11 10h1v1h-1zM13 10h1v1h-1zM15 10h1v1h-1zM17 10h1v1h-1zM19 10h1v1h-1zM21 10h1v1h-1zM23 10h1v1h-1zM25 10h1v1h-1zM27 10h1v1h-1zM29 10h1v1h-1zM37 10h4v1h-4zM0 11h12v1h-12zM13 11h1v1h-1zM17 11h2v1h-2zM20 11h1v1h-1zM22 11h1v1h-1zM24 11h4v1h-4zM29 11h12v1h-12zM0 12h6v1h-6zM8 12h2v1h-2zM18 12h1v1h-1zM31 12h1v1h-1zM33 12h8v1h-8zM0 13h4v1h-4zM5 13h2v1h-2zM10 13h2v1h-2zM14 13h1v1h-1zM16 13h2v1h-2zM19 13h1v1h-1zM21 13h2v1h-2zM31 13h2v1h-2zM35 13h1v1h-1zM37 13h4v1h-4zM0 14h4v1h-4zM5 14h3v1h-3zM11 14h2v1h-2zM15 14h3v1h-3zM19 14h1v1h-1zM21 14h1v1h-1zM23 14h4v1h-4zM32 14h4v1h-4zM37 14h4v1h-4zM0 15h6v1h-6zM8 15h1v1h-1zM10 15h2v1h-2zM14 15h1v1h-1zM16 15h1v1h-1zM21 15h1v1h-1zM25 15h8v1h-8zM34 15h7v1h-7zM0 16h6v1h-6zM7 16h1v1h-1zM12 16h2v1h-2zM15 16h4v1h-4zM20 16h1v1h-1zM23 16h2v1h-2zM26 16h2v1h-2zM30 16h3v1h-3zM34 16h7v1h-7zM0 17h5v1h-5zM6 17h1v1h-1zM8 17h1v1h-1zM10 17h1v1h-1zM13 17h4v1h-4zM18 17h1v1h-1zM22 17h4v1h-4zM27 17h1v1h-1zM29 17h5v1h-5zM37 17h4v1h-4zM0 18h4v1h-4zM5 18h2v1h-2zM8 18h2v1h-2zM12 18h1v1h-1zM15 18h2v1h-2zM18 18h1v1h-1zM20 18h1v1h-1zM27 18h1v1h-1zM30 18h1v1h-1zM35 18h6v1h-6zM0 19h4v1h-4zM6 19h8v1h-8zM15 19h5v1h-5zM21 19h1v1h-1zM30 19h1v1h-1zM32 19h2v1h-2zM37 19h4v1h-4zM0 20h5v1h-5zM7 20h3v1h-3zM12 20h3v1h-3zM17 20h1v1h-1zM19 20h2v1h-2zM24 20h1v1h-1zM26 20h1v1h-1zM28 20h2v1h-2zM31 20h1v1h-1zM34 20h7v1h-7zM0 21h5v1h-5zM6 21h1v1h-1zM8 21h1v1h-1zM10 21h3v1h-3zM14 21h3v1h-3zM19 21h1v1h-1zM21 21h1v1h-1zM23 21h1v1h-1zM25 21h1v1h-1zM31 21h1v1h-1zM34 21h2v1h-2zM37 21h4v1h-4zM0 22h4v1h-4zM5 22h1v1h-1zM7 22h3v1h-3zM12 22h1v1h-1zM15 22h1v1h-1zM17 22h2v1h-2zM20 22h1v1h-1zM22 22h1v1h-1zM26 22h2v1h-2zM32 22h2v1h-2zM35 22h6v1h-6zM0 23h7v1h-7zM8 23h3v1h-3zM13 23h2v1h-2zM20 23h1v1h-1zM23 23h4v1h-4zM28 23h3v1h-3zM32 23h3v1h-3zM36 23h5v1h-5zM0 24h5v1h-5zM6 24h1v1h-1zM9 24h1v1h-1zM15 24h1v1h-1zM18 24h1v1h-1zM21 24h4v1h-4zM26 24h2v1h-2zM29 24h1v1h-1zM32 24h2v1h-2zM36 24h5v1h-5zM0 25h4v1h-4zM5 25h1v1h-1zM8 25h1v1h-1zM10 25h1v1h-1zM14 25h1v1h-1zM21 25h2v1h-2zM27 25h1v1h-1zM29 25h5v1h-5zM35 25h1v1h-1zM37 25h4v1h-4zM0 26h6v1h-6zM8 26h2v1h-2zM11 26h1v1h-1zM17 26h2v1h-2zM21 26h1v1h-1zM24 26h1v1h-1zM26 26h1v1h-1zM29 26h1v1h-1zM32 26h1v1h-1zM34 26h1v1h-1zM37 26h4v1h-4zM0 27h5v1h-5zM6 27h1v1h-1zM9 27h7v1h-7zM20 27h1v1h-1zM23 27h1v1h-1zM25 27h5v1h-5zM31 27h1v1h-1zM34 27h1v1h-1zM36 27h5v1h-5zM0 28h4v1h-4zM5 28h2v1h-2zM11 28h1v1h-1zM13 28h3v1h-3zM20 28h1v1h-1zM24 28h4v1h-4zM34 28h1v1h-1zM36 28h5v1h-5zM0 29h12v1h-12zM13 29h2v1h-2zM21 29h1v1h-1zM24 29h1v1h-1zM26 29h2v1h-2zM29 29h3v1h-3zM34 29h7v1h-7zM0 30h4v1h-4zM11 30h1v1h-1zM17 30h1v1h-1zM20 30h3v1h-3zM24 30h1v1h-1zM26 30h1v1h-1zM29 30h1v1h-1zM31 30h1v1h-1zM35 30h6v1h-6zM0 31h4v1h-4zM5 31h5v1h-5zM11 31h3v1h-3zM15 31h1v1h-1zM17 31h2v1h-2zM22 31h2v1h-2zM25 31h3v1h-3zM29 31h3v1h-3zM35 31h6v1h-6zM0 32h4v1h-4zM5 32h1v1h-1zM9 32h1v1h-1zM11 32h2v1h-2zM14 32h3v1h-3zM18 32h2v1h-2zM23 32h1v1h-1zM25 32h1v1h-1zM33 32h1v1h-1zM35 32h1v1h-1zM37 32h4v1h-4zM0 33h4v1h-4zM5 33h1v1h-1zM9 33h1v1h-1zM11 33h1v1h-1zM14 33h1v1h-1zM16 33h2v1h-2zM21 33h3v1h-3zM27 33h2v1h-2zM30 33h3v1h-3zM35 33h6v1h-6zM0 34h4v1h-4zM5 34h1v1h-1zM9 34h1v1h-1zM11 34h1v1h-1zM13 34h1v1h-1zM15 34h3v1h-3zM19 34h2v1h-2zM22 34h1v1h-1zM24 34h2v1h-2zM27 34h1v1h-1zM29 34h1v1h-1zM31 34h10v1h-10zM0 35h4v1h-4zM5 35h5v1h-5zM11 35h2v1h-2zM15 35h2v1h-2zM21 35h2v1h-2zM29 35h5v1h-5zM35 35h1v1h-1zM37 35h4v1h-4zM0 36h4v1h-4zM11 36h2v1h-2zM14 36h1v1h-1zM16 36h1v1h-1zM18 36h4v1h-4zM23 36h1v1h-1zM25 36h1v1h-1zM28 36h13v1h-13zM0 37h41v1h-41zM0 38h41v1h-41zM0 39h41v1h-41zM0 40h41v1h-41z"/>
</svg>