<svg xmlns="http://www.w3.org/2000/svg" viewBox="0 0 33 33" shape-rendering="crispEdges" width="330" height="330">
<path fill="#0000FF" d="M0 0h33v1h-33zM0 1h33v1h-33zM0 2h33v1h-33zM0 3h33v1h-33zM0 4h4v1h-4zM11 4h1v1h-1zM13 4h1v1h-1zM15 4h1v1h-1zM17 4h3v1h-3zM21 4h1v1h-1zM29 4h4v1h-4zM0 5h4v1h-4zM5 5h5v1h-5zM11 5h2v1h-2zM17 5h5v1h-5zM23 5h5v1h-5zM29 5h4v1h-4zM0 6h4v1h-4zM5 6h1v1h-1zM9 6h1v1h-1zM11 6h1v1h-1zM15 6h2v1h-2zM19 6h3v1h-3zM23 6h1v1h-1zM27 6h1v1h-1zM29 6h4v1h-4zM0 7h4v1h-4zM5 7h1v1h-1zM9 7h1v1h-1zM11 7h1v1h-1zM15 7h1v1h-1zM21 7h1v1h-1zM23 7h1v1h-1zM27 7h1v1h-1zM29 7h4v1h-4zM0 8h4v1h-4zM5 8h1v1h-1zM9 8h1v1h-1zM11 8h1v1h-1zM13 8h2v1h-2zM17 8h2v1h-2zM21 8h1v1h-1zM23 8h1v1h-1zM27 8h1v1h-1zM29 8h4v1h-4zM0 9h4v1h-4zM5 9h5v1h-5zM11 9h3v1h-3zM16 9h4v1h-4zM21 9h1v1h-1zM23 9h5v1h-5zM29 9h4v1h-4zM0 10h4v1h-4zM11 10h1v1h-1zM13 10h1v1h-1zM15 10h1v1h-1zM17 10h1v1h-1zM19 10h1v1h-1zM21 10h1v1h-1zM29 10h4v1h-4zM0 11h14v1h-14zM15 11h1v1h-1zM17 11h16v1h-16zM0 12h4v1h-4zM8 12h2v1h-2zM11 12h1v1h-1zM13 12h1v1h-1zM16 12h2v1h-2zM19 12h1v1h-1zM22 12h2v1h-2zM27 12h1v1h-1zM29 12h4v1h-4zM0 13h4v1h-4zM6 13h1v1h-1zM10 13h1v1h-1zM13 13h1v1h-1zM15 13h1v1h-1zM17 13h1v1h-1zM19 13h6v1h-6zM27 13h6v1h-6zM0 14h5v1h-5zM11 14h2v1h-2zM17 14h3v1h-3zM22 14h1v1h-1zM26 14h7v1h-7zM0 15h7v1h-7zM8 15h1v1h-1zM10 15h2v1h-2zM18 15h1v1h-1zM21 15h2v1h-2zM24 15h1v1h-1zM27 15h6v1h-6zM0 16h4v1h-4zM5 16h1v1h-1zM8 16h1v1h-1zM12 16h1v1h-1zM16 16h1v1h-1zM18 16h3v1h-3zM23 16h1v1h-1zM25 16h1v1h-1zM27 16h6v1h-6zM0 17h5v1h-5zM8 17h1v1h-1zM10 17h8v1h-8zM21 17h1v1h-1zM25 17h2v1h-2zM29 17h4v1h-4zM0 18h5v1h-5zM6 18h3v1h-3zM14 18h2v1h-2zM18 18h5v1h-5zM24 18h1v1h-1zM26 18h1v1h-1zM28 18h5v1h-5zM0 19h4v1h-4zM5 19h1v1h-1zM8 19h1v1h-1zM10 19h1v1h-1zM17 19h1v1h-1zM19 19h2v1h-2zM23 19h2v1h-2zM26 19h2v1h-2zM29 19h4v1h-4zM0 20h6v1h-6zM7 20h1v1h-1zM16 20h1v1h-1zM19 20h1v1h-1zM25 20h1v1h-1zM27 20h6v1h-6zM0 21h12v1h-12zM14 21h1v1h-1zM16 21h1v1h-1zM18 21h2v1h-2zM21 21h3v1h-3zM25 21h1v1h-1zM28 21h5v1h-5zM0 22h4v1h-4zM11 22h9v1h-9zM21 22h1v1h-1zM23 22h1v1h-1zM26 22h1v1h-1zM29 22h4v1h-4zM0 23h4v1h-4zM5 23h5v1h-5zM11 23h2v1h-2zM15 23h3v1h-3zM21 23h3v1h-3zM26 23h2v1h-2zM29 23h4v1h-4zM0 24h4v1h-4zM5 24h1v1h-1zM9 24h1v1h-1zM11 24h3v1h-3zM15 24h1v1h-1zM17 24h3v1h-3zM25 24h3v1h-3zM29 24h4v1h-4zM0 25h4v1h-4zM5 25h1v1h-1zM9 25h1v1h-1zM11 25h1v1h-1zM13 25h1v1h-1zM17 25h1v1h-1zM19 25h2v1h-2zM23 25h1v1h-1zM29 25h4v1h-4zM0 26h4v1h-4zM5 26h1v1h-1zM9 26h1v1h-1zM11 26h1v1h-1zM13 26h2v1h-2zM16 26h2v1h-2zM19 26h1v1h-1zM21 26h1v1h-1zM23 26h1v1h-1zM26 26h1v1h-1zM28 26h5v1h-5zM0 27h4v1h-4zM5 27h5v1h-5zM11 27h1v1h-1zM16 27h1v1h-1zM19 27h2v1h-2zM22 27h2v1h-2zM27 27h6v1h-6zM0 28h4v1h-4zM11 28h1v1h-1zM13 28h4v1h-4zM18 28h3v1h-3zM23 28h3v1h-3zM29 28h4v1h-4zM0 29h33v1h-33zM0 30h33v1h-33zM0 31h33v1h-33zM0 32h33v1h-33z"/>
<path fill="#FF000080" d="M4 4h7v1h-7zM12 4h1v1h-1zM14 4h1v1h-1zM16 4h1v1h-1zM20 4h1v1h-1zM22 4h7v1h-7zM4 5h1v1h-1zM10 5h1v1h-1zM13 5h4v1h-4zM22 5h1v1h-1zM28 5h1v1h-1zM4 6h1v1h-1zM6 6h3v1h-3zM10 6h1v1h-1zM12 6h3v1h-3zM17 6h2v1h-2zM22 6h1v1h-1zM24 6h3v1h-3zM28 6h1v1h-1zM4 7h1v1h-1zM6 7h3v1h-3zM10 7h1v1h-1zM12 7h3v1h-3zM16 7h5v1h-5zM22 7h1v1h-1zM24 7h3v1h-3zM28 7h1v1h-1zM4 8h1v1h-1zM6 8h3v1h-3zM10 8h1v1h-1zM12 8h1v1h-1zM15 8h2v1h-2zM19 8h2v1h-2zM22 8h1v1h-1zM24 8h3v1h-3zM28 8h1v1h-1zM4 9h1v1h-1zM10 9h1v1h-1zM14 9h2v1h-2zM20 9h1v1h-1zM22 9h1v1h-1zM28 9h1v1h-1zM4 10h7v1h-7zM12 10h1v1h-1zM14 10h1v1h-1zM16 10h1v1h-1zM18 10h1v1h-1zM20 10h1v1h-1zM22 10h7v1h-7zM14 11h1v1h-1zM16 11h1v1h-1zM4 12h4v1h-4zM10 12h1v1h-1zM12 12h1v1h-1zM14 12h2v1h-2zM18 12h1v1h-1zM20 12h2v1h-2zM24 12h3v1h-3zM28 12h1v1h-1zM4 13h2v1h-2zM7 13h3v1h-3zM11 13h2v1h-2zM14 13h1v1h-1zM16 13h1v1h-1zM18 13h1v1h-1zM25 13h2v1h-2zM5 14h6v1h-6zM13 14h4v1h-4zM20 14h2v1h-2zM23 14h3v1h-3zM7 15h1v1h-1zM9 15h1v1h-1zM12 15h6v1h-6zM19 15h2v1h-2zM23 15h1v1h-1zM25 15h2v1h-2zM4 16h1v1h-1zM6 16h2v1h-2zM9 16h3v1h-3zM13 16h3v1h-3zM17 16h1v1h-1zM21 16h2v1h-2zM24 16h1v1h-1zM26 16h1v1h-1zM5 17h3v1h-3zM9 17h1v1h-1zM18 17h3v1h-3zM22 17h3v1h-3zM27 17h2v1h-2zM5 18h1v1h-1zM9 18h5v1h-5zM16 18h2v1h-2zM23 18h1v1h-1zM25 18h1v1h-1zM27 18h1v1h-1zM4 19h1v1h-1zM6 19h2v1h-2zM9 19h1v1h-1zM11 19h6v1h-6zM18 19h1v1h-1zM21 19h2v1h-2zM25 19h1v1h-1zM28 19h1v1h-1zM6 20h1v1h-1zM8 20h8v1h-8zM17 20h2v1h-2zM20 20h5v1h-5zM26 20h1v1h-1zM12 21h2v1h-2zM15 21h1v1h-1zM17 21h1v1h-1zM20 21h1v1h-1zM24 21h1v1h-1zM26 21h2v1h-2zM4 22h7v1h-7zM20 22h1v1h-1zM22 22h1v1h-1zM24 22h2v1h-2zM27 22h2v1h-2zM4 23h1v1h-1zM10 23h1v1h-1zM13 23h2v1h-2zM18 23h3v1h-3zM24 23h2v1h-2zM28 23h1v1h-1zM4 24h1v1h-1zM6 24h3v1h-3zM10 24h1v1h-1zM14 24h1v1h-1zM16 24h1v1h-1zM20 24h5v1h-5zM28 24h1v1h-1zM4 25h1v1h-1zM6 25h3v1h-3zM10 25h1v1h-1zM12 25h1v1h-1zM14 25h3v1h-3zM18 25h1v1h-1zM21 25h2v1h-2zM24 25h5v1h-5zM4 26h1v1h-1zM6 26h3v1h-3zM10 26h1v1h-1zM12 26h1v1h-1zM15 26h1v1h-1zM18 26h1v1h-1zM20 26h1v1h-1zM22 26h1v1h-1zM24 26h2v1h-2zM27 26h1v1h-1zM4 27h1v1h-1zM10 27h1v1h-1zM12 27h4v1h-4zM17 27h2v1h-2zM21 27h1v1h-1zM24 27h3v1h-3zM4 28h7v1h-7zM12 28h1v1h-1zM17 28h1v1h-1zM21 28h2v1h-2zM26 28h3v1h-3z"/>
</svg>