<svg xmlns="http://www.w3.org/2000/svg" viewBox="0 0 29 29" shape-rendering="crispEdges" width="58" height="58">
<rect x="0" y="0" width="29" height="29" fill="#ffffff"/>
<path fill="#000000" d="M4 4h7v1h-7zM13 4h1v1h-1zM18 4h7v1h-7zM4 5h1v1h-1zM10 5h1v1h-1zM15 5h2v1h-2zM18 5h1v1h-1zM24 5h1v1h-1zM4 6h1v1h-1zM6 6h3v1h-3zM10 6h1v1h-1zM12 6h2v1h-2zM18 6h1v1h-1zM20 6h3v1h-3zM24 6h1v1h-1zM4 7h1v1h-1zM6 7h3v1h-3zM10 7h1v1h-1zM13 7h1v1h-1zM16 7h1v1h-1zM18 7h1v1h-1zM20 7h3v1h-3zM24 7h1v1h-1zM4 8h1v1h-1zM6 8h3v1h-3zM10 8h1v1h-1zM12 8h2v1h-2zM16 8h1v1h-1zM18 8h1v1h-1zM20 8h3v1h-3zM24 8h1v1h-1zM4 9h1v1h-1zM10 9h1v1h-1zM12 9h1v1h-1zM16 9h1v1h-1zM18 9h1v1h-1zM24 9h1v1h-1zM4 10h7v1h-7zM12 10h1v1h-1zM14 10h1v1h-1zM16 10h1v1h-1zM18 10h7v1h-7zM13 11h1v1h-1zM15 11h1v1h-1zM5 12h1v1h-1zM8 12h1v1h-1zM10 12h1v1h-1zM12 12h3v1h-3zM16 12h2v1h-2zM19 12h2v1h-2zM22 12h1v1h-1zM5 13h3v1h-3zM9 13h1v1h-1zM11 13h2v1h-2zM16 13h1v1h-1zM19 13h1v1h-1zM21 13h1v1h-1zM23 13h2v1h-2zM5 14h3v1h-3zM10 14h5v1h-5zM18 14h5v1h-5zM4 15h1v1h-1zM6 15h1v1h-1zM8 15h1v1h-1zM11 15h1v1h-1zM13 15h1v1h-1zM16 15h3v1h-3zM20 15h1v1h-1zM22 15h1v1h-1zM4 16h3v1h-3zM10 16h2v1h-2zM13 16h1v1h-1zM15 16h1v1h-1zM17 16h2v1h-2zM22 16h1v1h-1zM24 16h1v1h-1zM12 17h3v1h-3zM17 17h2v1h-2zM22 17h1v1h-1zM24 17h1v1h-1zM4 18h7v1h-7zM15 18h3v1h-3zM24 18h1v1h-1zM4 19h1v1h-1zM10 19h1v1h-1zM16 19h1v1h-1zM19 19h1v1h-1zM21 19h1v1h-1zM4 20h1v1h-1zM6 20h3v1h-3zM10 20h1v1h-1zM12 20h5v1h-5zM18 20h7v1h-7zM4 21h1v1h-1zM6 21h3v1h-3zM10 21h1v1h-1zM13 21h1v1h-1zM15 21h2v1h-2zM19 21h1v1h-1zM21 21h1v1h-1zM23 21h2v1h-2zM4 22h1v1h-1zM6 22h3v1h-3zM10 22h1v1h-1zM13 22h3v1h-3zM18 22h5v1h-5zM4 23h1v1h-1zM10 23h1v1h-1zM12 23h1v1h-1zM17 23h2v1h-2zM20 23h1v1h-1zM22 23h1v1h-1zM24 23h1v1h-1zM4 24h7v1h-7zM13 24h1v1h-1zM16 24h3v1h-3zM22 24h3v1h-3z"/>
</svg>