<svg version="1.1" baseProfile="full" shape-rendering="crispEdges" width="165" height="165" xmlns="http://www.w3.org/2000/svg" xmlns:xlink="http://www.w3.org/1999/xlink"><rect x="0" y="0" width="165" height="165" fill="#FFFFFF" />
<rect x="20" y="20" width="35" height="5" fill="#000000" />
<rect x="60" y="20" width="5" height="5" fill="#000000" />
<rect x="70" y="20" width="5" height="5" fill="#000000" />
<rect x="80" y="20" width="5" height="5" fill="#000000" />
<rect x="100" y="20" width="5" height="5" fill="#000000" />
<rect x="110" y="20" width="35" height="5" fill="#000000" />
<rect x="20" y="25" width="5" height="25" fill="#000000" />
<rect x="50" y="25" width="5" height="25" fill="#000000" />
<rect x="65" y="25" width="20" height="5" fill="#000000" />
<rect x="110" y="25" width="5" height="25" fill="#000000" />
<rect x="140" y="25" width="5" height="25" fill="#000000" />
<rect x="30" y="30" width="15" height="15" fill="#000000" />
<rect x="60" y="30" width="15" height="10" fill="#000000" />
<rect x="85" y="30" width="10" height="5" fill="#000000" />
<rect x="120" y="30" width="15" height="15" fill="#000000" />
<rect x="80" y="35" width="25" height="5" fill="#000000" />
<rect x="60" y="40" width="5" height="5" fill="#000000" />
<rect x="75" y="40" width="10" height="5" fill="#000000" />
<rect x="95" y="40" width="10" height="5" fill="#000000" />
<rect x="70" y="45" width="10" height="5" fill="#000000" />
<rect x="100" y="45" width="5" height="10" fill="#000000" />
<rect x="20" y="50" width="35" height="5" fill="#000000" />
<rect x="60" y="50" width="5" height="5" fill="#000000" />
<rect x="70" y="50" width="5" height="10" fill="#000000" />
<rect x="80" y="50" width="5" height="10" fill="#000000" />
<rect x="90" y="50" width="5" height="5" fill="#000000" />
<rect x="110" y="50" width="35" height="5" fill="#000000" />
<rect x="20" y="60" width="20" height="5" fill="#000000" />
<rect x="50" y="60" width="5" height="5" fill="#000000" />
<rect x="60" y="60" width="5" height="5" fill="#000000" />
<rect x="70" y="60" width="10" height="5" fill="#000000" />
<rect x="90" y="60" width="5" height="10" fill="#000000" />
<rect x="100" y="60" width="10" height="5" fill="#000000" />
<rect x="120" y="60" width="15" height="5" fill="#000000" />
<rect x="140" y="60" width="5" height="5" fill="#000000" />
<rect x="20" y="65" width="10" height="5" fill="#000000" />
<rect x="35" y="65" width="15" height="5" fill="#000000" />
<rect x="55" y="65" width="10" height="5" fill="#000000" />
<rect x="70" y="65" width="5" height="5" fill="#000000" />
<rect x="80" y="65" width="5" height="5" fill="#000000" />
<rect x="125" y="65" width="10" height="5" fill="#000000" />
<rect x="25" y="70" width="30" height="5" fill="#000000" />
<rect x="65" y="70" width="20" height="5" fill="#000000" />
<rect x="100" y="70" width="10" height="5" fill="#000000" />
<rect x="115" y="70" width="15" height="5" fill="#000000" />
<rect x="35" y="75" width="5" height="5" fill="#000000" />
<rect x="45" y="75" width="5" height="5" fill="#000000" />
<rect x="60" y="75" width="30" height="5" fill="#000000" />
<rect x="95" y="75" width="10" height="5" fill="#000000" />
<rect x="115" y="75" width="5" height="5" fill="#000000" />
<rect x="125" y="75" width="10" height="5" fill="#000000" />
<rect x="20" y="80" width="5" height="5" fill="#000000" />
<rect x="30" y="80" width="10" height="5" fill="#000000" />
<rect x="45" y="80" width="15" height="5" fill="#000000" />
<rect x="65" y="80" width="15" height="5" fill="#000000" />
<rect x="85" y="80" width="5" height="5" fill="#000000" />
<rect x="105" y="80" width="10" height="5" fill="#000000" />
<rect x="120" y="80" width="5" height="5" fill="#000000" />
<rect x="130" y="80" width="5" height="5" fill="#000000" />
<rect x="25" y="85" width="15" height="5" fill="#000000" />
<rect x="45" y="85" width="5" height="5" fill="#000000" />
<rect x="90" y="85" width="15" height="5" fill="#000000" />
<rect x="110" y="85" width="15" height="5" fill="#000000" />
<rect x="135" y="85" width="10" height="5" fill="#000000" />
<rect x="25" y="90" width="5" height="5" fill="#000000" />
<rect x="45" y="90" width="25" height="5" fill="#000000" />
<rect x="80" y="90" width="10" height="5" fill="#000000" />
<rect x="115" y="90" width="5" height="5" fill="#000000" />
<rect x="125" y="90" width="5" height="10" fill="#000000" />
<rect x="135" y="90" width="5" height="5" fill="#000000" />
<rect x="20" y="95" width="5" height="5" fill="#000000" />
<rect x="30" y="95" width="10" height="5" fill="#000000" />
<rect x="45" y="95" width="5" height="5" fill="#000000" />
<rect x="55" y="95" width="30" height="5" fill="#000000" />
<rect x="90" y="95" width="5" height="5" fill="#000000" />
<rect x="105" y="95" width="10" height="5" fill="#000000" />
<rect x="140" y="95" width="5" height="5" fill="#000000" />
<rect x="30" y="100" width="5" height="5" fill="#000000" />
<rect x="40" y="100" width="40" height="5" fill="#000000" />
<rect x="85" y="100" width="10" height="5" fill="#000000" />
<rect x="100" y="100" width="25" height="5" fill="#000000" />
<rect x="130" y="100" width="5" height="5" fill="#000000" />
<rect x="60" y="105" width="10" height="5" fill="#000000" />
<rect x="75" y="105" width="5" height="5" fill="#000000" />
<rect x="85" y="105" width="5" height="5" fill="#000000" />
<rect x="100" y="105" width="5" height="10" fill="#000000" />
<rect x="120" y="105" width="5" height="5" fill="#000000" />
<rect x="130" y="105" width="10" height="5" fill="#000000" />
<rect x="20" y="110" width="35" height="5" fill="#000000" />
<rect x="110" y="110" width="5" height="5" fill="#000000" />
<rect x="120" y="110" width="10" height="10" fill="#000000" />
<rect x="135" y="110" width="10" height="5" fill="#000000" />
<rect x="20" y="115" width="5" height="25" fill="#000000" />
<rect x="50" y="115" width="5" height="25" fill="#000000" />
<rect x="65" y="115" width="10" height="5" fill="#000000" />
<rect x="90" y="115" width="15" height="5" fill="#000000" />
<rect x="140" y="115" width="5" height="10" fill="#000000" />
<rect x="30" y="120" width="15" height="15" fill="#000000" />
<rect x="70" y="120" width="5" height="5" fill="#000000" />
<rect x="80" y="120" width="5" height="5" fill="#000000" />
<rect x="100" y="120" width="25" height="5" fill="#000000" />
<rect x="60" y="125" width="5" height="10" fill="#000000" />
<rect x="70" y="125" width="15" height="5" fill="#000000" />
<rect x="90" y="125" width="5" height="10" fill="#000000" />
<rect x="105" y="125" width="10" height="5" fill="#000000" />
<rect x="120" y="125" width="25" height="5" fill="#000000" />
<rect x="75" y="130" width="5" height="5" fill="#000000" />
<rect x="100" y="130" width="5" height="5" fill="#000000" />
<rect x="110" y="130" width="5" height="5" fill="#000000" />
<rect x="120" y="130" width="10" height="5" fill="#000000" />
<rect x="135" y="130" width="5" height="5" fill="#000000" />
<rect x="60" y="135" width="20" height="5" fill="#000000" />
<rect x="85" y="135" width="10" height="5" fill="#000000" />
<rect x="105" y="135" width="5" height="5" fill="#000000" />
<rect x="120" y="135" width="15" height="5" fill="#000000" />
<rect x="20" y="140" width="35" height="5" fill="#000000" />
<rect x="60" y="140" width="5" height="5" fill="#000000" />
<rect x="85" y="140" width="5" height="5" fill="#000000" />
<rect x="105" y="140" width="10" height="5" fill="#000000" />
<rect x="130" y="140" width="15" height="5" fill="#000000" />
</svg>